<svg width="32" height="33" viewBox="0 0 32 33" fill="none" xmlns="http://www.w3.org/2000/svg">
<path d="M27.8291 6.4707L3.8291 6.4707C3.29867 6.4707 2.78996 6.68142 2.41489 7.05649C2.03982 7.43156 1.8291 7.94027 1.8291 8.4707L1.8291 24.4707C1.8291 25.0011 2.03982 25.5098 2.41489 25.8849C2.78996 26.26 3.29867 26.4707 3.8291 26.4707L27.8291 26.4707C28.3595 26.4707 28.8682 26.26 29.2433 25.8849C29.6184 25.5098 29.8291 25.0011 29.8291 24.4707L29.8291 8.4707C29.8291 7.94027 29.6184 7.43156 29.2433 7.05649C28.8682 6.68142 28.3595 6.4707 27.8291 6.4707ZM27.8291 8.4707L27.8291 11.4707L3.8291 11.4707L3.8291 8.4707L27.8291 8.4707ZM3.8291 24.4707L3.8291 13.4707L27.8291 13.4707L27.8291 24.4707L3.8291 24.4707Z" fill="white"/>
<path d="M20.1147 20.4707L30.1147 20.4707L30.1147 22.4707L20.1147 22.4707L20.1147 20.4707Z" fill="white"/>
</svg>
