<svg width="213" height="168" viewBox="0 0 213 168" fill="none" xmlns="http://www.w3.org/2000/svg">
<g filter="url(#filter0_d_345_2277)">
<path fill-rule="evenodd" clip-rule="evenodd" d="M101.286 0.724609H61.7363L7.71703 90.1691L7.76386 90.1674C2.86607 97.5184 0 106.419 0 116.009C0 141.257 19.8665 161.725 44.373 161.725C68.8795 161.725 88.746 141.257 88.746 116.009C88.746 100.116 80.8745 86.1171 68.929 77.925L101.286 0.724609Z" fill="#1D42E1"/>
</g>
<g filter="url(#filter1_d_345_2277)">
<path fill-rule="evenodd" clip-rule="evenodd" d="M203.537 0.724609H163.987L109.968 90.1691L110.015 90.1674C105.117 97.5184 102.251 106.419 102.251 116.009C102.251 141.257 122.117 161.725 146.624 161.725C171.13 161.725 190.997 141.257 190.997 116.009C190.997 100.116 183.125 86.1171 171.18 77.925L203.537 0.724609Z" fill="#1D42E1"/>
</g>
<defs>
<filter id="filter0_d_345_2277" x="0" y="0.724609" width="110.286" height="167" filterUnits="userSpaceOnUse" color-interpolation-filters="sRGB">
<feFlood flood-opacity="0" result="BackgroundImageFix"/>
<feColorMatrix in="SourceAlpha" type="matrix" values="0 0 0 0 0 0 0 0 0 0 0 0 0 0 0 0 0 0 127 0" result="hardAlpha"/>
<feOffset dx="9" dy="6"/>
<feComposite in2="hardAlpha" operator="out"/>
<feColorMatrix type="matrix" values="0 0 0 0 1 0 0 0 0 0.447059 0 0 0 0 0 0 0 0 1 0"/>
<feBlend mode="normal" in2="BackgroundImageFix" result="effect1_dropShadow_345_2277"/>
<feBlend mode="normal" in="SourceGraphic" in2="effect1_dropShadow_345_2277" result="shape"/>
</filter>
<filter id="filter1_d_345_2277" x="102.251" y="0.724609" width="110.286" height="167" filterUnits="userSpaceOnUse" color-interpolation-filters="sRGB">
<feFlood flood-opacity="0" result="BackgroundImageFix"/>
<feColorMatrix in="SourceAlpha" type="matrix" values="0 0 0 0 0 0 0 0 0 0 0 0 0 0 0 0 0 0 127 0" result="hardAlpha"/>
<feOffset dx="9" dy="6"/>
<feComposite in2="hardAlpha" operator="out"/>
<feColorMatrix type="matrix" values="0 0 0 0 1 0 0 0 0 0.447059 0 0 0 0 0 0 0 0 1 0"/>
<feBlend mode="normal" in2="BackgroundImageFix" result="effect1_dropShadow_345_2277"/>
<feBlend mode="normal" in="SourceGraphic" in2="effect1_dropShadow_345_2277" result="shape"/>
</filter>
</defs>
</svg>
