<svg width="147" height="119" viewBox="0 0 147 119" fill="none" xmlns="http://www.w3.org/2000/svg">
<g filter="url(#filter0_d_345_2783)">
<path fill-rule="evenodd" clip-rule="evenodd" d="M69.8307 0H42.5634L5.32028 61.6667L5.35294 61.6655C1.97607 66.7337 0 72.87 0 79.4818C0 96.889 13.6968 111 30.5926 111C47.4884 111 61.1851 96.889 61.1851 79.4818C61.1851 68.5245 55.7581 58.8732 47.5223 53.2253L69.8307 0Z" fill="#1D42E1"/>
</g>
<g filter="url(#filter1_d_345_2783)">
<path fill-rule="evenodd" clip-rule="evenodd" d="M140.325 0H113.058L75.8149 61.6667L75.8476 61.6655C72.4707 66.7337 70.4946 72.87 70.4946 79.4818C70.4946 96.889 84.1914 111 101.087 111C117.983 111 131.68 96.889 131.68 79.4818C131.68 68.5245 126.253 58.8732 118.017 53.2253L140.325 0Z" fill="#1D42E1"/>
</g>
<defs>
<filter id="filter0_d_345_2783" x="0" y="0" width="75.8306" height="119" filterUnits="userSpaceOnUse" color-interpolation-filters="sRGB">
<feFlood flood-opacity="0" result="BackgroundImageFix"/>
<feColorMatrix in="SourceAlpha" type="matrix" values="0 0 0 0 0 0 0 0 0 0 0 0 0 0 0 0 0 0 127 0" result="hardAlpha"/>
<feOffset dx="6" dy="8"/>
<feComposite in2="hardAlpha" operator="out"/>
<feColorMatrix type="matrix" values="0 0 0 0 1 0 0 0 0 0.447059 0 0 0 0 0 0 0 0 1 0"/>
<feBlend mode="normal" in2="BackgroundImageFix" result="effect1_dropShadow_345_2783"/>
<feBlend mode="normal" in="SourceGraphic" in2="effect1_dropShadow_345_2783" result="shape"/>
</filter>
<filter id="filter1_d_345_2783" x="70.4946" y="0" width="75.8306" height="119" filterUnits="userSpaceOnUse" color-interpolation-filters="sRGB">
<feFlood flood-opacity="0" result="BackgroundImageFix"/>
<feColorMatrix in="SourceAlpha" type="matrix" values="0 0 0 0 0 0 0 0 0 0 0 0 0 0 0 0 0 0 127 0" result="hardAlpha"/>
<feOffset dx="6" dy="8"/>
<feComposite in2="hardAlpha" operator="out"/>
<feColorMatrix type="matrix" values="0 0 0 0 1 0 0 0 0 0.447059 0 0 0 0 0 0 0 0 1 0"/>
<feBlend mode="normal" in2="BackgroundImageFix" result="effect1_dropShadow_345_2783"/>
<feBlend mode="normal" in="SourceGraphic" in2="effect1_dropShadow_345_2783" result="shape"/>
</filter>
</defs>
</svg>
