<svg width="204" height="162" viewBox="0 0 204 162" fill="none" xmlns="http://www.w3.org/2000/svg">
<path fill-rule="evenodd" clip-rule="evenodd" d="M101.286 0.724609H61.7363L7.71703 90.1691L7.76386 90.1674C2.86607 97.5184 0 106.419 0 116.009C0 141.257 19.8665 161.725 44.373 161.725C68.8795 161.725 88.746 141.257 88.746 116.009C88.746 100.116 80.8745 86.1171 68.929 77.925L101.286 0.724609Z" fill="#1D42E1"/>
<path fill-rule="evenodd" clip-rule="evenodd" d="M203.537 0.724609H163.987L109.968 90.1691L110.015 90.1674C105.117 97.5184 102.251 106.419 102.251 116.009C102.251 141.257 122.117 161.725 146.624 161.725C171.131 161.725 190.997 141.257 190.997 116.009C190.997 100.116 183.125 86.1171 171.18 77.925L203.537 0.724609Z" fill="#1D42E1"/>
</svg>
